<svg width="746" height="515" viewBox="0 0 746 515" fill="none" xmlns="http://www.w3.org/2000/svg">
<path d="M713.587 0.505859C734.694 0.505859 745.248 86.2549 745.248 257.753C745.248 429.251 734.694 515 713.587 515C692.479 515 681.926 458.274 681.926 344.821C681.926 232.424 667.414 232.424 638.392 344.821C608.841 458.274 583.776 515 563.196 515C542.617 515 517.551 458.801 488.001 346.404C458.978 235.062 444.467 235.062 444.467 346.404C444.467 458.801 433.913 515 412.806 515C391.698 515 381.145 429.251 381.145 257.753C381.145 86.2549 391.698 0.505859 412.806 0.505859C433.913 0.505859 464.255 72.0074 503.832 215.01C543.408 358.013 582.985 358.013 622.561 215.01C662.137 72.0074 692.479 0.505859 713.587 0.505859Z" fill="black"/>
<path d="M268.11 126.359C218.508 210.261 218.508 296.01 268.11 383.606C317.713 471.202 329.586 515 303.729 515C277.345 515 246.739 480.964 211.912 412.893C176.557 345.349 140.41 345.349 103.472 412.893C66.5342 480.964 35.9284 515 11.6548 515C-12.0911 515 1.36493 471.202 52.0228 383.606C102.153 296.538 103.472 210.789 55.9805 126.359C7.96101 42.4569 -4.17577 0.505859 19.5701 0.505859C43.316 0.505859 72.8664 32.9586 108.221 97.864C143.576 162.242 179.723 162.242 216.661 97.864C254.127 32.9586 284.469 0.505859 307.687 0.505859C331.433 0.505859 318.241 42.4569 268.11 126.359Z" fill="black"/>
</svg>
